<mxfile host="app.diagrams.net" modified="2021-10-17T15:22:10.188Z" agent="5.0 (Windows NT 10.0; Win64; x64) AppleWebKit/537.36 (KHTML, like Gecko) Chrome/94.0.4606.81 Safari/537.36" etag="3T-IuMrs0CXcAv4gQml7" version="14.9.6" type="github">
  <diagram id="-bducpL9S-pL6oBFDIxS" name="Page-1">
    <mxGraphModel dx="1422" dy="762" grid="1" gridSize="10" guides="1" tooltips="1" connect="1" arrows="1" fold="1" page="1" pageScale="1" pageWidth="850" pageHeight="1100" math="0" shadow="0">
      <root>
        <mxCell id="0" />
        <mxCell id="1" parent="0" />
        <mxCell id="NRL2sjOyWiATco4ct4EH-1" value="Start" style="rounded=0;whiteSpace=wrap;html=1;" vertex="1" parent="1">
          <mxGeometry x="210" y="250" width="100" height="60" as="geometry" />
        </mxCell>
        <mxCell id="NRL2sjOyWiATco4ct4EH-2" value="Pause" style="rounded=0;whiteSpace=wrap;html=1;" vertex="1" parent="1">
          <mxGeometry x="210" y="330" width="100" height="60" as="geometry" />
        </mxCell>
        <mxCell id="NRL2sjOyWiATco4ct4EH-3" value="Stop" style="rounded=0;whiteSpace=wrap;html=1;" vertex="1" parent="1">
          <mxGeometry x="210" y="410" width="100" height="60" as="geometry" />
        </mxCell>
        <mxCell id="NRL2sjOyWiATco4ct4EH-4" value="&lt;span&gt;Phase 1: Training&lt;/span&gt;" style="rounded=0;whiteSpace=wrap;html=1;" vertex="1" parent="1">
          <mxGeometry x="330" y="180" width="260" height="290" as="geometry" />
        </mxCell>
        <mxCell id="NRL2sjOyWiATco4ct4EH-6" value="PSï¼š when hard ware device is disconnected or encounter some unexpected condition, it will enter pause stage." style="text;html=1;strokeColor=none;fillColor=none;align=center;verticalAlign=middle;whiteSpace=wrap;rounded=0;" vertex="1" parent="1">
          <mxGeometry x="110" y="620" width="430" height="30" as="geometry" />
        </mxCell>
        <mxCell id="NRL2sjOyWiATco4ct4EH-7" value="Event pop over" style="text;html=1;align=center;verticalAlign=middle;resizable=0;points=[];autosize=1;strokeColor=none;" vertex="1" parent="1">
          <mxGeometry x="770" y="480" width="100" height="20" as="geometry" />
        </mxCell>
        <mxCell id="NRL2sjOyWiATco4ct4EH-9" value="Phase2 :&amp;nbsp; Visualization" style="rounded=0;whiteSpace=wrap;html=1;" vertex="1" parent="1">
          <mxGeometry x="600" y="180" width="270" height="290" as="geometry" />
        </mxCell>
        <mxCell id="NRL2sjOyWiATco4ct4EH-10" value="Device connecting status:&lt;br&gt;EEG\ EMG\ ROBOT HAND" style="text;html=1;align=center;verticalAlign=middle;resizable=0;points=[];autosize=1;strokeColor=none;" vertex="1" parent="1">
          <mxGeometry x="160" y="200" width="160" height="30" as="geometry" />
        </mxCell>
        <mxCell id="NRL2sjOyWiATco4ct4EH-11" value="DEBUGGING TOOL" style="text;html=1;align=center;verticalAlign=middle;resizable=0;points=[];autosize=1;strokeColor=none;" vertex="1" parent="1">
          <mxGeometry x="190" y="180" width="120" height="20" as="geometry" />
        </mxCell>
        <mxCell id="NRL2sjOyWiATco4ct4EH-12" value="Demo Video + Text View" style="text;html=1;align=center;verticalAlign=middle;resizable=0;points=[];autosize=1;strokeColor=none;" vertex="1" parent="1">
          <mxGeometry x="385" y="400" width="150" height="20" as="geometry" />
        </mxCell>
        <mxCell id="NRL2sjOyWiATco4ct4EH-13" value="Signal&amp;nbsp;Visualization" style="text;html=1;align=center;verticalAlign=middle;resizable=0;points=[];autosize=1;strokeColor=none;" vertex="1" parent="1">
          <mxGeometry x="660" y="370" width="120" height="20" as="geometry" />
        </mxCell>
        <mxCell id="NRL2sjOyWiATco4ct4EH-15" value="Detected Results" style="text;html=1;align=center;verticalAlign=middle;resizable=0;points=[];autosize=1;strokeColor=none;" vertex="1" parent="1">
          <mxGeometry x="660" y="420" width="110" height="20" as="geometry" />
        </mxCell>
      </root>
    </mxGraphModel>
  </diagram>
</mxfile>
